<?xml version="1.0" encoding="UTF-8"?>
<svg xmlns="http://www.w3.org/2000/svg" version="1.1" viewBox="0 0 116.5 44">
  <defs>
    <style>
      .cls-1 {
        fill: #fff;
      }
    </style>
  </defs>
  <!-- Generator: Adobe Illustrator 28.6.0, SVG Export Plug-In . SVG Version: 1.2.0 Build 709)  -->
  <g>
    <g id="Capa_1">
      <g>
        <g>
          <path class="cls-1" d="M47.3,20l1.5,2.3c.4.6.7,1.1,1.1,1.7h0c.3-.6.7-1.2,1-1.7l1.5-2.2h2.1l-3.6,5.1,3.7,5.4h-2.2l-1.5-2.4c-.4-.6-.8-1.2-1.1-1.8h0c-.3.6-.7,1.2-1.1,1.8l-1.5,2.4h-2.1l3.7-5.4-3.6-5.2h2.1Z"/>
          <path class="cls-1" d="M58.8,17.4h-4.5v-1.6h10.9v1.6h-4.5v13h-1.9v-13Z"/>
          <path class="cls-1" d="M68.6,17c0,.7-.5,1.2-1.2,1.2s-1.2-.5-1.2-1.2.5-1.2,1.2-1.2,1.2.5,1.2,1.2ZM66.5,30.5v-10.5h1.9v10.5h-1.9Z"/>
          <path class="cls-1" d="M72.7,25.6c0,2.6,1.7,3.7,3.6,3.7s2.2-.2,2.9-.5l.3,1.4c-.7.3-1.8.7-3.5.7-3.2,0-5.2-2.1-5.2-5.3s1.9-5.7,4.9-5.7,4.3,3,4.3,5,0,.7,0,.9h-7.4ZM78.3,24.2c0-1.2-.5-3.1-2.7-3.1s-2.8,1.8-2.9,3.1h5.6Z"/>
          <path class="cls-1" d="M82.5,22.8c0-1.1,0-2,0-2.8h1.7v1.7h.2c.5-1,1.7-2,3.5-2s3.7.9,3.7,4.5v6.3h-1.9v-6.1c0-1.7-.6-3.1-2.4-3.1s-2.2.9-2.6,2c0,.2-.1.6-.1.9v6.3h-1.9v-7.7Z"/>
          <path class="cls-1" d="M103.6,15.1v12.7c0,.9,0,2,0,2.7h-1.7v-1.8h-.1c-.6,1.2-1.9,2.1-3.6,2.1-2.5,0-4.5-2.2-4.5-5.3,0-3.5,2.2-5.7,4.7-5.7s2.7.8,3.2,1.6h0v-6.3h1.9ZM101.7,24.2c0-.2,0-.6,0-.8-.3-1.2-1.3-2.2-2.8-2.2s-3.2,1.7-3.2,4.1,1,3.9,3.1,3.9,2.5-.8,2.8-2.3c0-.3,0-.5,0-.8v-1.8Z"/>
          <path class="cls-1" d="M112.6,30.5l-.2-1.3h0c-.6.8-1.7,1.6-3.2,1.6-2.1,0-3.2-1.5-3.2-3,0-2.5,2.3-3.9,6.3-3.9v-.2c0-.9-.2-2.4-2.4-2.4s-2,.3-2.7.8l-.4-1.3c.9-.6,2.1-.9,3.5-.9,3.2,0,4,2.2,4,4.3v3.9c0,.9,0,1.8.2,2.5h-1.7ZM112.3,25.1c-2.1,0-4.5.3-4.5,2.4s.8,1.8,1.8,1.8,2.2-.9,2.5-1.8c0-.2.1-.4.1-.6v-1.8Z"/>
        </g>
        <g>
          <path class="cls-1" d="M33.2,36.8H4.9c-2.3,0-4.1-1.8-4.1-4.1v-15.3c0-2.3,1.8-4.1,4.1-4.1h28.3c2.3,0,4.1,1.8,4.1,4.1v15.3c0,2.3-1.8,4.1-4.1,4.1ZM4.9,15.1c-1.3,0-2.3,1-2.3,2.3v15.3c0,1.3,1,2.3,2.3,2.3h28.3c1.3,0,2.3-1,2.3-2.3v-15.3c0-1.3-1-2.3-2.3-2.3H4.9Z"/>
          <rect class="cls-1" x="16.6" y="36.2" width="4.9" height="6.3"/>
          <path class="cls-1" d="M24.6,7.1h-.9c0-2.6-1.1-4.9-2.9-5.8-1.7-.9-3.4,0-3.5,0-1.7.9-2.7,3-2.7,5.4h-.9c0-2.7,1.2-5.1,3.2-6.2.2-.1,2.2-1.1,4.4,0,2.1,1.1,3.5,3.6,3.4,6.6Z"/>
          <rect class="cls-1" x="12" y="41.9" width="14.4" height="2.1"/>
          <path class="cls-1" d="M30.5,29.2l-1.8-21c0-.9-.8-1.6-1.8-1.6h-15.6c-.9,0-1.7.7-1.8,1.6l-1.9,21c0,1,.7,1.9,1.8,1.9h19.3c1,0,1.9-.9,1.8-1.9ZM22.4,23.1l-3.3-4.2-3.1,4.1-1.7-1.3,4.8-6.3,5.1,6.3-1.7,1.3Z"/>
        </g>
      </g>
    </g>
  </g>
</svg>